{
  "accessors": [
    {
      "bufferView": 0,
      "byteOffset": 0,
      "componentType": 5123,
      "count": 5580,
      "max": [
        2066.0
      ],
      "min": [
        0.0
      ],
      "name": "buffer-0-group-0-mesh-0-indices",
      "type": "SCALAR"
    },
    {
      "bufferView": 1,
      "byteOffset": 0,
      "componentType": 5126,
      "count": 2067,
      "max": [
        30.79165267944336,
        68.08000183105469,
        52.0737419128418
      ],
      "min": [
        -30.79165267944336,
        -1.6699990034103394,
        0.0
      ],
      "name": "buffer-0-group-0-mesh-0-position",
      "type": "VEC3"
    },
    {
      "bufferView": 1,
      "byteOffset": 24804,
      "componentType": 5126,
      "count": 2067,
      "max": [
        0.9997920393943787,
        1.0,
        0.9997918009757996
      ],
      "min": [
        -0.9997920989990234,
        -1.0,
        -0.9997924566268921
      ],
      "name": "buffer-0-group-0-mesh-0-normal",
      "type": "VEC3"
    },
    {
      "bufferView": 2,
      "byteOffset": 0,
      "componentType": 5126,
      "count": 2067,
      "max": [
        0.9940729737281799,
        -0.0033599999733269215
      ],
      "min": [
        0.005894999951124191,
        -0.996616005897522
      ],
      "name": "buffer-0-group-0-mesh-0-texcoord",
      "type": "VEC2"
    },
    {
      "bufferView": 0,
      "byteOffset": 11160,
      "componentType": 5123,
      "count": 150,
      "max": [
        51.0
      ],
      "min": [
        0.0
      ],
      "name": "buffer-0-group-1-mesh-0-indices",
      "type": "SCALAR"
    },
    {
      "bufferView": 1,
      "byteOffset": 49608,
      "componentType": 5126,
      "count": 52,
      "max": [
        4.425270080566406,
        65.63882446289062,
        30.462141036987305
      ],
      "min": [
        -4.425300121307373,
        8.095568656921387,
        21.611591339111328
      ],
      "name": "buffer-0-group-1-mesh-0-position",
      "type": "VEC3"
    },
    {
      "bufferView": 1,
      "byteOffset": 50232,
      "componentType": 5126,
      "count": 52,
      "max": [
        0.8992637395858765,
        1.0,
        0.8992636799812317
      ],
      "min": [
        -0.8992635607719421,
        -0.8648030757904053,
        -0.8285760283470154
      ],
      "name": "buffer-0-group-1-mesh-0-normal",
      "type": "VEC3"
    },
    {
      "bufferView": 2,
      "byteOffset": 16536,
      "componentType": 5126,
      "count": 52,
      "max": [
        0.997573971748352,
        -0.695622980594635
      ],
      "min": [
        0.2827700078487396,
        -1.8347150087356567
      ],
      "name": "buffer-0-group-1-mesh-0-texcoord",
      "type": "VEC2"
    }
  ],
  "asset": {
    "generator": "Obj2GltfConverter",
    "version": "2.0"
  },
  "bufferViews": [
    {
      "buffer": 0,
      "byteLength": 11460,
      "byteOffset": 0,
      "name": "buffer-0-bufferview-ushort",
      "target": 34963
    },
    {
      "buffer": 0,
      "byteLength": 50856,
      "byteOffset": 11460,
      "byteStride": 12,
      "name": "buffer-0-bufferview-vec3",
      "target": 34962
    },
    {
      "buffer": 0,
      "byteLength": 16952,
      "byteOffset": 62320,
      "byteStride": 8,
      "name": "buffer-0-bufferview-vec2",
      "target": 34962
    }
  ],
  "buffers": [
    {
      "byteLength": 79272,
      "name": "buffer-0",
      "uri": "tower.bin"
    }
  ],
  "images": [
    {
      "mimeType": "image/jpeg",
      "name": "T-diffuse-image",
      "uri": "tower-map.jpg"
    },
    {
      "mimeType": "image/jpeg",
      "name": "Mat-diffuse-image",
      "uri": "tower-fx.jpg"
    }
  ],
  "materials": [
    {
      "alphaMode": "OPAQUE",
      "doubleSided": true,
      "name": "T",
      "pbrMetallicRoughness": {
        "baseColorFactor": [
          1.0,
          1.0,
          1.0,
          1.0
        ],
        "baseColorTexture": {
          "index": 0,
          "texCoord": 0
        },
        "metallicFactor": 0.0,
        "roughnessFactor": 0.9699476628648295
      }
    },
    {
      "alphaMode": "OPAQUE",
      "doubleSided": true,
      "name": "Mat",
      "pbrMetallicRoughness": {
        "baseColorFactor": [
          1.0,
          1.0,
          1.0,
          1.0
        ],
        "baseColorTexture": {
          "index": 1,
          "texCoord": 0
        },
        "metallicFactor": 0.0,
        "roughnessFactor": 0.9699476628648295
      }
    }
  ],
  "meshes": [
    {
      "name": "buffer-0-mesh-0",
      "primitives": [
        {
          "attributes": {
            "POSITION": 1,
            "NORMAL": 2,
            "TEXCOORD_0": 3
          },
          "indices": 0,
          "material": 0,
          "mode": 4
        },
        {
          "attributes": {
            "POSITION": 5,
            "NORMAL": 6,
            "TEXCOORD_0": 7
          },
          "indices": 4,
          "material": 1,
          "mode": 4
        }
      ]
    }
  ],
  "nodes": [
    {
      "mesh": 0,
      "name": "node-0"
    }
  ],
  "samplers": [
    {
      "name": "T-diffuse-sampler",
      "wrapS": 10497,
      "wrapT": 10497
    },
    {
      "name": "Mat-diffuse-sampler",
      "wrapS": 10497,
      "wrapT": 10497
    }
  ],
  "scenes": [
    {
      "name": "scene-0",
      "nodes": [
        0
      ]
    }
  ],
  "textures": [
    {
      "name": "T-diffuse-texture",
      "sampler": 0,
      "source": 0
    },
    {
      "name": "Mat-diffuse-texture",
      "sampler": 1,
      "source": 1
    }
  ]
}